<svg width="26" height="50" viewBox="0 0 26 50" fill="none" xmlns="http://www.w3.org/2000/svg">
<rect x="8" y="24" width="2" height="2" transform="rotate(-90 8 24)" fill="#EB3323"/>
<rect x="10" y="24" width="2" height="2" transform="rotate(-90 10 24)" fill="#EB3323"/>
<rect x="12" y="26" width="2" height="2" transform="rotate(-90 12 26)" fill="#EB3323"/>
<rect x="14" y="28" width="2" height="2" transform="rotate(-90 14 28)" fill="#EB3323"/>
<rect x="8" y="26" width="2" height="2" transform="rotate(-90 8 26)" fill="#EB3323"/>
<rect x="10" y="28" width="2" height="2" transform="rotate(-90 10 28)" fill="#EB3323"/>
<rect x="14" y="24" width="2" height="2" transform="rotate(-90 14 24)" fill="#EB3323"/>
<rect x="16" y="26" width="2" height="2" transform="rotate(-90 16 26)" fill="#EB3323"/>
<rect x="8" y="28" width="2" height="2" transform="rotate(-90 8 28)" fill="#EB3323"/>
<rect x="10" y="26" width="2" height="2" transform="rotate(-90 10 26)" fill="#EB3323"/>
<rect x="6" y="26" width="2" height="2" transform="rotate(-90 6 26)" fill="#EB3323"/>
<rect x="14" y="26" width="2" height="2" transform="rotate(-90 14 26)" fill="#EB3323"/>
<rect x="18" y="26" width="2" height="2" transform="rotate(-90 18 26)" fill="#EB3323"/>
<rect x="12" y="24" width="2" height="2" transform="rotate(-90 12 24)" fill="#EB3323"/>
<rect x="12" y="28" width="2" height="2" transform="rotate(-90 12 28)" fill="#EB3323"/>
<rect x="16" y="24" width="2" height="2" transform="rotate(-90 16 24)" fill="#EB3323"/>
<rect x="16" y="28" width="2" height="2" transform="rotate(-90 16 28)" fill="#EB3323"/>
<rect x="4.00001" y="6" width="2" height="2" fill="#EB3323"/>
<rect x="4.00001" y="8" width="2" height="2" fill="#EB3323"/>
<rect x="2.00001" y="10" width="2" height="2" fill="#EB3323"/>
<rect x="7.62939e-06" y="12" width="2" height="2" fill="#EB3323"/>
<rect x="7.62939e-06" y="16" width="2" height="2" fill="#EB3323"/>
<rect x="7.62939e-06" y="20" width="2" height="2" fill="#EB3323"/>
<rect x="2.00001" y="6" width="2" height="2" fill="#EB3323"/>
<rect x="7.62939e-06" y="8" width="2" height="2" fill="#EB3323"/>
<rect x="7.62939e-06" y="4" width="2" height="2" fill="#EB3323"/>
<rect x="4.00001" y="12" width="2" height="2" fill="#EB3323"/>
<rect x="4.00001" y="16" width="2" height="2" fill="#EB3323"/>
<rect x="2.00001" y="14" width="2" height="2" fill="#EB3323"/>
<rect x="2.00001" y="18" width="2" height="2" fill="#EB3323"/>
<rect x="7.62939e-06" y="6" width="2" height="2" fill="#EB3323"/>
<rect x="7.62939e-06" y="2" width="2" height="2" fill="#EB3323"/>
<rect x="2.00001" y="8" width="2" height="2" fill="#EB3323"/>
<rect x="2.00001" y="4" width="2" height="2" fill="#EB3323"/>
<rect x="2.00001" y="12" width="2" height="2" fill="#EB3323"/>
<rect x="2.00001" y="16" width="2" height="2" fill="#EB3323"/>
<rect x="2.00001" y="20" width="2" height="2" fill="#EB3323"/>
<rect x="4.00001" y="10" width="2" height="2" fill="#EB3323"/>
<rect x="7.62939e-06" y="10" width="2" height="2" fill="#EB3323"/>
<rect x="4.00001" y="14" width="2" height="2" fill="#EB3323"/>
<rect x="4.00001" y="18" width="2" height="2" fill="#EB3323"/>
<rect x="7.62939e-06" y="14" width="2" height="2" fill="#EB3323"/>
<rect x="7.62939e-06" y="18" width="2" height="2" fill="#EB3323"/>
<rect x="7.62939e-06" y="22" width="2" height="2" fill="#EB3323"/>
<rect x="22" y="44" width="2" height="2" transform="rotate(-180 22 44)" fill="#EB3323"/>
<rect x="22" y="42" width="2" height="2" transform="rotate(-180 22 42)" fill="#EB3323"/>
<rect x="24" y="40" width="2" height="2" transform="rotate(-180 24 40)" fill="#EB3323"/>
<rect x="26" y="38" width="2" height="2" transform="rotate(-180 26 38)" fill="#EB3323"/>
<rect x="26" y="34" width="2" height="2" transform="rotate(-180 26 34)" fill="#EB3323"/>
<rect x="26" y="30" width="2" height="2" transform="rotate(-180 26 30)" fill="#EB3323"/>
<rect x="24" y="44" width="2" height="2" transform="rotate(-180 24 44)" fill="#EB3323"/>
<rect x="26" y="42" width="2" height="2" transform="rotate(-180 26 42)" fill="#EB3323"/>
<rect x="26" y="46" width="2" height="2" transform="rotate(-180 26 46)" fill="#EB3323"/>
<rect x="22" y="38" width="2" height="2" transform="rotate(-180 22 38)" fill="#EB3323"/>
<rect x="22" y="34" width="2" height="2" transform="rotate(-180 22 34)" fill="#EB3323"/>
<rect x="24" y="36" width="2" height="2" transform="rotate(-180 24 36)" fill="#EB3323"/>
<rect x="24" y="32" width="2" height="2" transform="rotate(-180 24 32)" fill="#EB3323"/>
<rect x="26" y="44" width="2" height="2" transform="rotate(-180 26 44)" fill="#EB3323"/>
<rect x="26" y="48" width="2" height="2" transform="rotate(-180 26 48)" fill="#EB3323"/>
<rect x="24" y="42" width="2" height="2" transform="rotate(-180 24 42)" fill="#EB3323"/>
<rect x="24" y="46" width="2" height="2" transform="rotate(-180 24 46)" fill="#EB3323"/>
<rect x="24" y="38" width="2" height="2" transform="rotate(-180 24 38)" fill="#EB3323"/>
<rect x="24" y="34" width="2" height="2" transform="rotate(-180 24 34)" fill="#EB3323"/>
<rect x="24" y="30" width="2" height="2" transform="rotate(-180 24 30)" fill="#EB3323"/>
<rect x="22" y="40" width="2" height="2" transform="rotate(-180 22 40)" fill="#EB3323"/>
<rect x="26" y="40" width="2" height="2" transform="rotate(-180 26 40)" fill="#EB3323"/>
<rect x="22" y="36" width="2" height="2" transform="rotate(-180 22 36)" fill="#EB3323"/>
<rect x="22" y="32" width="2" height="2" transform="rotate(-180 22 32)" fill="#EB3323"/>
<rect x="26" y="36" width="2" height="2" transform="rotate(-180 26 36)" fill="#EB3323"/>
<rect x="26" y="32" width="2" height="2" transform="rotate(-180 26 32)" fill="#EB3323"/>
<rect x="26" y="28" width="2" height="2" transform="rotate(-180 26 28)" fill="#EB3323"/>
<rect x="20" y="4" width="2" height="2" transform="rotate(90 20 4)" fill="#EB3323"/>
<rect x="18" y="4" width="2" height="2" transform="rotate(90 18 4)" fill="#EB3323"/>
<rect x="16" y="2" width="2" height="2" transform="rotate(90 16 2)" fill="#EB3323"/>
<rect x="14" width="2" height="2" transform="rotate(90 14 0)" fill="#EB3323"/>
<rect x="10" width="2" height="2" transform="rotate(90 10 0)" fill="#EB3323"/>
<rect x="6" width="2" height="2" transform="rotate(90 6 0)" fill="#EB3323"/>
<rect x="20" y="2" width="2" height="2" transform="rotate(90 20 2)" fill="#EB3323"/>
<rect x="18" width="2" height="2" transform="rotate(90 18 0)" fill="#EB3323"/>
<rect x="22" width="2" height="2" transform="rotate(90 22 0)" fill="#EB3323"/>
<rect x="14" y="4" width="2" height="2" transform="rotate(90 14 4)" fill="#EB3323"/>
<rect x="10" y="4" width="2" height="2" transform="rotate(90 10 4)" fill="#EB3323"/>
<rect x="12" y="2" width="2" height="2" transform="rotate(90 12 2)" fill="#EB3323"/>
<rect x="8" y="2" width="2" height="2" transform="rotate(90 8 2)" fill="#EB3323"/>
<rect x="20" width="2" height="2" transform="rotate(90 20 0)" fill="#EB3323"/>
<rect x="24" width="2" height="2" transform="rotate(90 24 0)" fill="#EB3323"/>
<rect x="18" y="2" width="2" height="2" transform="rotate(90 18 2)" fill="#EB3323"/>
<rect x="22" y="2" width="2" height="2" transform="rotate(90 22 2)" fill="#EB3323"/>
<rect x="14" y="2" width="2" height="2" transform="rotate(90 14 2)" fill="#EB3323"/>
<rect x="10" y="2" width="2" height="2" transform="rotate(90 10 2)" fill="#EB3323"/>
<rect x="6" y="2" width="2" height="2" transform="rotate(90 6 2)" fill="#EB3323"/>
<rect x="16" y="4" width="2" height="2" transform="rotate(90 16 4)" fill="#EB3323"/>
<rect x="16" width="2" height="2" transform="rotate(90 16 0)" fill="#EB3323"/>
<rect x="12" y="4" width="2" height="2" transform="rotate(90 12 4)" fill="#EB3323"/>
<rect x="8" y="4" width="2" height="2" transform="rotate(90 8 4)" fill="#EB3323"/>
<rect x="12" width="2" height="2" transform="rotate(90 12 0)" fill="#EB3323"/>
<rect x="8" width="2" height="2" transform="rotate(90 8 0)" fill="#EB3323"/>
<rect x="4" width="2" height="2" transform="rotate(90 4 0)" fill="#EB3323"/>
<rect x="6" y="46" width="2" height="2" transform="rotate(-90 6 46)" fill="#EB3323"/>
<rect x="8" y="46" width="2" height="2" transform="rotate(-90 8 46)" fill="#EB3323"/>
<rect x="10" y="48" width="2" height="2" transform="rotate(-90 10 48)" fill="#EB3323"/>
<rect x="12" y="50" width="2" height="2" transform="rotate(-90 12 50)" fill="#EB3323"/>
<rect x="16" y="50" width="2" height="2" transform="rotate(-90 16 50)" fill="#EB3323"/>
<rect x="20" y="50" width="2" height="2" transform="rotate(-90 20 50)" fill="#EB3323"/>
<rect x="6" y="48" width="2" height="2" transform="rotate(-90 6 48)" fill="#EB3323"/>
<rect x="8" y="50" width="2" height="2" transform="rotate(-90 8 50)" fill="#EB3323"/>
<rect x="4" y="50" width="2" height="2" transform="rotate(-90 4 50)" fill="#EB3323"/>
<rect x="12" y="46" width="2" height="2" transform="rotate(-90 12 46)" fill="#EB3323"/>
<rect x="16" y="46" width="2" height="2" transform="rotate(-90 16 46)" fill="#EB3323"/>
<rect x="14" y="48" width="2" height="2" transform="rotate(-90 14 48)" fill="#EB3323"/>
<rect x="18" y="48" width="2" height="2" transform="rotate(-90 18 48)" fill="#EB3323"/>
<rect x="6" y="50" width="2" height="2" transform="rotate(-90 6 50)" fill="#EB3323"/>
<rect x="2" y="50" width="2" height="2" transform="rotate(-90 2 50)" fill="#EB3323"/>
<rect x="8" y="48" width="2" height="2" transform="rotate(-90 8 48)" fill="#EB3323"/>
<rect x="4" y="48" width="2" height="2" transform="rotate(-90 4 48)" fill="#EB3323"/>
<rect x="12" y="48" width="2" height="2" transform="rotate(-90 12 48)" fill="#EB3323"/>
<rect x="16" y="48" width="2" height="2" transform="rotate(-90 16 48)" fill="#EB3323"/>
<rect x="20" y="48" width="2" height="2" transform="rotate(-90 20 48)" fill="#EB3323"/>
<rect x="10" y="46" width="2" height="2" transform="rotate(-90 10 46)" fill="#EB3323"/>
<rect x="10" y="50" width="2" height="2" transform="rotate(-90 10 50)" fill="#EB3323"/>
<rect x="14" y="46" width="2" height="2" transform="rotate(-90 14 46)" fill="#EB3323"/>
<rect x="18" y="46" width="2" height="2" transform="rotate(-90 18 46)" fill="#EB3323"/>
<rect x="14" y="50" width="2" height="2" transform="rotate(-90 14 50)" fill="#EB3323"/>
<rect x="18" y="50" width="2" height="2" transform="rotate(-90 18 50)" fill="#EB3323"/>
<rect x="22" y="50" width="2" height="2" transform="rotate(-90 22 50)" fill="#EB3323"/>
<rect x="22" y="20" width="2" height="2" transform="rotate(-180 22 20)" fill="#EB3323"/>
<rect x="22" y="18" width="2" height="2" transform="rotate(-180 22 18)" fill="#EB3323"/>
<rect x="24" y="16" width="2" height="2" transform="rotate(-180 24 16)" fill="#EB3323"/>
<rect x="26" y="14" width="2" height="2" transform="rotate(-180 26 14)" fill="#EB3323"/>
<rect x="26" y="10" width="2" height="2" transform="rotate(-180 26 10)" fill="#EB3323"/>
<rect x="26" y="6" width="2" height="2" transform="rotate(-180 26 6)" fill="#EB3323"/>
<rect x="24" y="20" width="2" height="2" transform="rotate(-180 24 20)" fill="#EB3323"/>
<rect x="26" y="18" width="2" height="2" transform="rotate(-180 26 18)" fill="#EB3323"/>
<rect x="26" y="22" width="2" height="2" transform="rotate(-180 26 22)" fill="#EB3323"/>
<rect x="22" y="14" width="2" height="2" transform="rotate(-180 22 14)" fill="#EB3323"/>
<rect x="22" y="10" width="2" height="2" transform="rotate(-180 22 10)" fill="#EB3323"/>
<rect x="24" y="12" width="2" height="2" transform="rotate(-180 24 12)" fill="#EB3323"/>
<rect x="24" y="8" width="2" height="2" transform="rotate(-180 24 8)" fill="#EB3323"/>
<rect x="26" y="20" width="2" height="2" transform="rotate(-180 26 20)" fill="#EB3323"/>
<rect x="26" y="24" width="2" height="2" transform="rotate(-180 26 24)" fill="#EB3323"/>
<rect x="24" y="18" width="2" height="2" transform="rotate(-180 24 18)" fill="#EB3323"/>
<rect x="24" y="22" width="2" height="2" transform="rotate(-180 24 22)" fill="#EB3323"/>
<rect x="24" y="14" width="2" height="2" transform="rotate(-180 24 14)" fill="#EB3323"/>
<rect x="24" y="10" width="2" height="2" transform="rotate(-180 24 10)" fill="#EB3323"/>
<rect x="24" y="6" width="2" height="2" transform="rotate(-180 24 6)" fill="#EB3323"/>
<rect x="22" y="16" width="2" height="2" transform="rotate(-180 22 16)" fill="#EB3323"/>
<rect x="26" y="16" width="2" height="2" transform="rotate(-180 26 16)" fill="#EB3323"/>
<rect x="22" y="12" width="2" height="2" transform="rotate(-180 22 12)" fill="#EB3323"/>
<rect x="22" y="8" width="2" height="2" transform="rotate(-180 22 8)" fill="#EB3323"/>
<rect x="26" y="12" width="2" height="2" transform="rotate(-180 26 12)" fill="#EB3323"/>
<rect x="26" y="8" width="2" height="2" transform="rotate(-180 26 8)" fill="#EB3323"/>
<rect x="26" y="4" width="2" height="2" transform="rotate(-180 26 4)" fill="#EB3323"/>
<rect x="4.00001" y="30" width="2" height="2" fill="#EB3323"/>
<rect x="4.00001" y="32" width="2" height="2" fill="#EB3323"/>
<rect x="2.00001" y="34" width="2" height="2" fill="#EB3323"/>
<rect x="7.62939e-06" y="36" width="2" height="2" fill="#EB3323"/>
<rect x="7.62939e-06" y="40" width="2" height="2" fill="#EB3323"/>
<rect x="7.62939e-06" y="44" width="2" height="2" fill="#EB3323"/>
<rect x="2.00001" y="30" width="2" height="2" fill="#EB3323"/>
<rect x="7.62939e-06" y="32" width="2" height="2" fill="#EB3323"/>
<rect x="7.62939e-06" y="28" width="2" height="2" fill="#EB3323"/>
<rect x="4.00001" y="36" width="2" height="2" fill="#EB3323"/>
<rect x="4.00001" y="40" width="2" height="2" fill="#EB3323"/>
<rect x="2.00001" y="38" width="2" height="2" fill="#EB3323"/>
<rect x="2.00001" y="42" width="2" height="2" fill="#EB3323"/>
<rect x="7.62939e-06" y="30" width="2" height="2" fill="#EB3323"/>
<rect x="7.62939e-06" y="26" width="2" height="2" fill="#EB3323"/>
<rect x="2.00001" y="32" width="2" height="2" fill="#EB3323"/>
<rect x="2.00001" y="28" width="2" height="2" fill="#EB3323"/>
<rect x="2.00001" y="36" width="2" height="2" fill="#EB3323"/>
<rect x="2.00001" y="40" width="2" height="2" fill="#EB3323"/>
<rect x="2.00001" y="44" width="2" height="2" fill="#EB3323"/>
<rect x="4.00001" y="34" width="2" height="2" fill="#EB3323"/>
<rect x="7.62939e-06" y="34" width="2" height="2" fill="#EB3323"/>
<rect x="4.00001" y="38" width="2" height="2" fill="#EB3323"/>
<rect x="4.00001" y="42" width="2" height="2" fill="#EB3323"/>
<rect x="7.62939e-06" y="38" width="2" height="2" fill="#EB3323"/>
<rect x="7.62939e-06" y="42" width="2" height="2" fill="#EB3323"/>
<rect x="7.62939e-06" y="46" width="2" height="2" fill="#EB3323"/>
</svg>
